<?xml version="1.0" encoding="UTF-8"?> <svg xmlns="http://www.w3.org/2000/svg" width="112" height="112" viewBox="0 0 112 112" fill="none"> <g filter="url(#filter0_i_4_120)"> <path d="M56 108C84.7188 108 108 84.7188 108 56C108 27.2812 84.7188 4 56 4C27.2812 4 4 27.2812 4 56C4 84.7188 27.2812 108 56 108Z" fill="#39BDE0"></path> <path d="M56 76.8L76.8 56L56 35.2" fill="#39BDE0"></path> </g> <path d="M56 76.8L76.8 56M76.8 56L56 35.2M76.8 56H35.2M108 56C108 84.7188 84.7188 108 56 108C27.2812 108 4 84.7188 4 56C4 27.2812 27.2812 4 56 4C84.7188 4 108 27.2812 108 56Z" stroke="white" stroke-width="2" stroke-linecap="round" stroke-linejoin="round"></path> <defs> <filter id="filter0_i_4_120" x="0" y="0" width="112" height="128" filterUnits="userSpaceOnUse" color-interpolation-filters="sRGB"> <feFlood flood-opacity="0" result="BackgroundImageFix"></feFlood> <feBlend mode="normal" in="SourceGraphic" in2="BackgroundImageFix" result="shape"></feBlend> <feColorMatrix in="SourceAlpha" type="matrix" values="0 0 0 0 0 0 0 0 0 0 0 0 0 0 0 0 0 0 127 0" result="hardAlpha"></feColorMatrix> <feOffset dy="4"></feOffset> <feGaussianBlur stdDeviation="2"></feGaussianBlur> <feComposite in2="hardAlpha" operator="arithmetic" k2="-1" k3="1"></feComposite> <feColorMatrix type="matrix" values="0 0 0 0 0 0 0 0 0 0 0 0 0 0 0 0 0 0 0.25 0"></feColorMatrix> <feBlend mode="normal" in2="shape" result="effect1_innerShadow_4_120"></feBlend> </filter> </defs> </svg> 